FFmpeg version SVN-r25716, Copyright (c) 2000-2010 the FFmpeg developers  built on Nov 10 2010 12:23:18 with gcc 4.1.2 20080704 (Red Hat 4.1.2-48)  configuration: --enable-libmp3lame --enable-shared --disable-mmx --arch=x86_64  libavutil     50.33. 0 / 50.33. 0  libavcore      0.12. 1 /  0.12. 1  libavcodec    52.94. 4 / 52.94. 4  libavformat   52.84. 0 / 52.84. 0  libavdevice   52. 2. 2 / 52. 2. 2  libavfilter    1.59. 0 /  1.59. 0  libswscale     0.12. 0 /  0.12. 0Input #0, avi, from '/RAID10/data/converted_video_files/47371.avi':  Duration: 00:00:08.00, start: 0.000000, bitrate: 20980 kb/s    Stream #0.0: Video: msvideo1, rgb555le, 1024x1024, 20 tbr, 20 tbn, 20 tbc[buffer @ 0x1c287490] w:1024 h:1024 pixfmt:rgb555le[ffsink @ 0x1c286920] auto-inserting filter 'auto-inserted scaler 0' between the filter 'src' and the filter 'out'[scale @ 0x1c285820] w:1024 h:1024 fmt:rgb555le -> w:1024 h:1024 fmt:yuv420p flags:0x4Output #0, flv, to '/RAID10/data/converted_video_files/47371.flv':  Metadata:    encoder         : Lavf52.84.0    Stream #0.0: Video: flv, yuv420p, 1024x1024, q=2-31, 600 kb/s, 1k tbn, 24 tbcStream mapping:  Stream #0.0 -> #0.0Press [q] to stop encodingframe=    7 fps=  0 q=9.3 size=     409kB time=0.33 bitrate=10043.3kbits/s    frame=   16 fps= 14 q=31.0 size=     472kB time=0.79 bitrate=4878.8kbits/s    frame=   26 fps= 15 q=24.8 size=     513kB time=1.29 bitrate=3257.7kbits/s    frame=   37 fps= 17 q=31.0 size=     534kB time=1.83 bitrate=2384.5kbits/s    frame=   48 fps= 18 q=31.0 size=     581kB time=2.38 bitrate=2005.6kbits/s    frame=   57 fps= 18 q=31.0 size=     655kB time=2.83 bitrate=1893.3kbits/s    frame=   68 fps= 18 q=31.0 size=     704kB time=3.37 bitrate=1708.5kbits/s    frame=   79 fps= 19 q=31.0 size=     750kB time=3.96 bitrate=1552.4kbits/s    frame=   90 fps= 19 q=31.0 size=     794kB time=4.50 bitrate=1445.9kbits/s    frame=   99 fps= 19 q=31.0 size=     832kB time=4.96 bitrate=1374.6kbits/s    frame=  109 fps= 19 q=31.0 size=     871kB time=5.46 bitrate=1307.7kbits/s    frame=  120 fps= 19 q=31.0 size=     913kB time=6.00 bitrate=1246.1kbits/s    frame=  131 fps= 19 q=31.0 size=     952kB time=6.54 bitrate=1192.8kbits/s    frame=  141 fps= 19 q=31.0 size=     994kB time=7.04 bitrate=1156.5kbits/s    frame=  150 fps= 19 q=31.0 size=    1031kB time=7.50 bitrate=1126.3kbits/s    frame=  160 fps= 19 q=31.0 size=    1074kB time=8.00 bitrate=1099.9kbits/s    frame=  160 fps= 19 q=31.0 Lsize=    1074kB time=8.00 bitrate=1099.9kbits/s    video:1071kB audio:0kB global headers:0kB muxing overhead 0.252467%